<?xml version="1.0" encoding="UTF-8"?>
<svg width="225px" height="29px" viewBox="0 0 225 29" version="1.1" xmlns="http://www.w3.org/2000/svg" xmlns:xlink="http://www.w3.org/1999/xlink">
    <!-- Generator: Sketch 52.2 (67145) - http://www.bohemiancoding.com/sketch -->
    <title>Group 23</title>
    <desc>Created with Sketch.</desc>
    <g id="Symbols" stroke="none" stroke-width="1" fill="none" fill-rule="evenodd">
        <g id="Header" transform="translate(-52.000000, -68.000000)" fill="#FEFEFE">
            <g id="Group-23">
                <g>
                    <g transform="translate(52.000000, 68.000000)">
                        <path d="M162.827967,17.5531786 C162.827967,21.91029 159.319663,25.4532699 155.007781,25.4532699 C150.694392,25.4532699 147.186088,21.91029 147.186088,17.5531786 C147.186088,13.1975749 150.694392,9.65610266 155.007781,9.65610266 C159.319663,9.65610266 162.827967,13.1975749 162.827967,17.5531786 M155.007781,7.25592226 C149.286246,7.25592226 144.632127,11.8874261 144.632127,17.5803163 C144.632127,23.2430535 149.286246,27.850435 155.007781,27.850435 C160.726302,27.850435 165.38042,23.2430535 165.38042,17.5803163 C165.38042,11.8874261 160.726302,7.25592226 155.007781,7.25592226" id="Fill-3"></path>
                        <polygon id="Fill-5" points="43.3745164 15.7952576 32.3505722 15.7952576 32.3505722 7.86501326 29.7966114 7.86501326 29.7966114 27.785606 32.3505722 27.785606 32.3505722 18.195438 43.3745164 18.195438 43.3745164 27.785606 45.9284772 27.785606 45.9284772 7.86501326 43.3745164 7.86501326"></polygon>
                        <path d="M67.8222836,12.7608084 L70.8059249,19.9176277 L64.766275,19.9176277 L67.8222836,12.7608084 Z M58.6829032,27.5976019 L58.5653064,27.8629485 L61.3650143,27.8629485 L63.7229805,22.3147928 L71.8205741,22.3147928 L74.1272801,27.8629485 L76.9480951,27.8629485 L67.8795743,6.72417374 L58.6829032,27.5976019 Z" id="Fill-7"></path>
                        <polygon id="Fill-9" points="90.1183313 27.8950615 92.6722921 27.8950615 92.6722921 7.97446872 90.1183313 7.97446872"></polygon>
                        <polygon id="Fill-11" points="191.576309 22.8328217 176.336972 6.86378223 176.336972 27.8970214 178.889426 27.8970214 178.889426 13.1205339 194.13027 29.0594203 194.13027 7.97642867 191.576309 7.97642867"></polygon>
                        <path d="M224.621004,17.4986017 L224.616481,17.3146682 L216.105791,17.3146682 L216.105791,19.7118333 L221.908739,19.7118333 C221.78662,23.1553082 218.34616,25.4529684 215.127325,25.4529684 C213.262361,25.4529684 211.237586,24.5438548 209.714858,23.0211273 C208.278067,21.5587058 207.488058,19.6454967 207.488058,17.6327826 C207.488058,13.2349646 210.9843,9.65580113 215.284121,9.65580113 C217.945125,9.65580113 220.152326,10.8679525 221.84391,13.2575794 L221.967538,13.4339746 L223.830994,11.6896223 L223.725459,11.5554414 C221.531827,8.70145804 218.69895,7.25562072 215.308243,7.25562072 C209.588215,7.25562072 204.934097,11.8991858 204.934097,17.6056449 C204.934097,23.1598312 209.625907,27.8501335 215.178585,27.8501335 C217.997893,27.8501335 220.755386,26.6048137 222.554014,24.5197324 C224.349626,22.4361587 224.676787,20.2907713 224.621004,17.4986017" id="Fill-12"></path>
                        <polygon id="Fill-13" points="70.7124506 0.356458953 66.632747 2.39480311 66.6071169 4.5432058 70.6883282 2.50636929"></polygon>
                        <polygon id="Fill-14" points="159.019038 4.65266126 159.047683 2.50727388 155.236341 0.604618309 155.15342 0.563911732 151.271219 2.5344116 151.245589 4.68432193 155.141359 2.71532972"></polygon>
                        <polygon id="Fill-15" points="0.000150765101 10.0295478 7.50825278 10.0295478 7.50825278 27.5529755 10.0652289 27.5529755 10.0652289 10.0295478 17.624591 10.0295478 17.624591 7.62936741 0.000150765101 7.62936741"></polygon>
                        <path d="M133.225541,22.9903712 C131.241472,24.6141114 129.488074,25.3392915 127.547727,25.3392915 C123.324797,25.3392915 119.756187,21.699822 119.756187,17.3909554 C119.756187,13.0835965 123.300675,9.44412693 127.49496,9.44412693 C129.653916,9.44412693 131.790257,10.3728399 133.358214,11.9920571 L133.493903,12.1322687 L135.018138,10.5612963 L134.917126,10.4316383 C133.261725,8.33148048 129.84388,7.03188532 127.626125,7.03188532 C121.871421,7.03188532 117.188657,11.7146493 117.188657,17.4678456 C117.188657,23.1366134 121.871421,27.7470101 127.626125,27.7470101 C130.323313,27.7470101 132.768723,26.8333736 134.889988,25.030223 L135.030199,24.9081033 L133.371783,22.8712668 L133.225541,22.9903712 Z" id="Fill-16"></path>
                    </g>
                </g>
            </g>
        </g>
    </g>
</svg>